<svg width="32" height="32" viewBox="0 0 32 32" fill="none" xmlns="http://www.w3.org/2000/svg">
  <!-- Background gradient circle -->
  <defs>
    <linearGradient id="bgGrad" x1="0%" y1="0%" x2="100%" y2="100%">
      <stop offset="0%" style="stop-color:#8b5cf6;stop-opacity:1" />
      <stop offset="50%" style="stop-color:#ec4899;stop-opacity:1" />
      <stop offset="100%" style="stop-color:#3b82f6;stop-opacity:1" />
    </linearGradient>
    <linearGradient id="starGrad" x1="0%" y1="0%" x2="100%" y2="100%">
      <stop offset="0%" style="stop-color:#fef3c7;stop-opacity:1" />
      <stop offset="100%" style="stop-color:#fcd34d;stop-opacity:1" />
    </linearGradient>
  </defs>
  
  <!-- Background circle -->
  <circle cx="16" cy="16" r="15" fill="url(#bgGrad)"/>
  
  <!-- Main sparkle/star shape -->
  <g transform="translate(16, 16)">
    <!-- Center circle -->
    <circle cx="0" cy="0" r="2.5" fill="url(#starGrad)"/>
    
    <!-- Top ray -->
    <path d="M 0,-8 L 0.8,-3 L 0,-2.5 L -0.8,-3 Z" fill="url(#starGrad)"/>
    
    <!-- Right ray -->
    <path d="M 8,0 L 3,0.8 L 2.5,0 L 3,-0.8 Z" fill="url(#starGrad)"/>
    
    <!-- Bottom ray -->
    <path d="M 0,8 L 0.8,3 L 0,2.5 L -0.8,3 Z" fill="url(#starGrad)"/>
    
    <!-- Left ray -->
    <path d="M -8,0 L -3,0.8 L -2.5,0 L -3,-0.8 Z" fill="url(#starGrad)"/>
    
    <!-- Top-right diagonal -->
    <path d="M 5.7,-5.7 L 2.3,-2.3 L 1.8,-2.8 L 2.8,-1.8 Z" fill="url(#starGrad)" opacity="0.7"/>
    
    <!-- Bottom-right diagonal -->
    <path d="M 5.7,5.7 L 2.3,2.3 L 2.8,1.8 L 1.8,2.8 Z" fill="url(#starGrad)" opacity="0.7"/>
    
    <!-- Bottom-left diagonal -->
    <path d="M -5.7,5.7 L -2.3,2.3 L -1.8,2.8 L -2.8,1.8 Z" fill="url(#starGrad)" opacity="0.7"/>
    
    <!-- Top-left diagonal -->
    <path d="M -5.7,-5.7 L -2.3,-2.3 L -2.8,-1.8 L -1.8,-2.8 Z" fill="url(#starGrad)" opacity="0.7"/>
  </g>
  
  <!-- Small accent stars -->
  <circle cx="8" cy="8" r="1" fill="#fef3c7" opacity="0.8"/>
  <circle cx="24" cy="8" r="1" fill="#fef3c7" opacity="0.8"/>
  <circle cx="8" cy="24" r="0.8" fill="#fef3c7" opacity="0.6"/>
  <circle cx="24" cy="24" r="0.8" fill="#fef3c7" opacity="0.6"/>
</svg>
